<svg xmlns="http://www.w3.org/2000/svg" xmlns:svgjs="http://svgjs.com/svgjs" xmlns:xlink="http://www.w3.org/1999/xlink" width="288" height="288"><svg xmlns="http://www.w3.org/2000/svg" width="288" height="288" data-name="1" viewBox="0 0 128 128"><path fill="#941b0c" d="M115 25.21a64 64 0 0 0-13-12.82 2 2 0 1 0-2.36 3.22 60.13 60.13 0 0 1 .86 96.11 59.79 59.79 0 0 1-83.9-11.36 60.17 60.17 0 0 1 8.33-81.62V38a2 2 0 1 0 4 0V14a2 2 0 0 0-2-2H2a2 2 0 0 0 0 4h20a64 64 0 0 0 42.27 112 63.39 63.39 0 0 0 38.61-13.07A64.18 64.18 0 0 0 115 25.21Z" class="color000 svgShape"/><path fill="#941b0c" d="M63.83 67a2 2 0 0 0 2-2V2a2 2 0 1 0-4 0v63a2 2 0 0 0 2 2Z" class="color000 svgShape"/></svg></svg>